HIERARCHY
ROOT Hips
{
 OFFSET 0.000000 0.000000 0.000000
 CHANNELS 6 Xposition Yposition Zposition Yrotation Xrotation Zrotation
 JOINT Chest
 {
  OFFSET 0.000000 9.585900 0.002600
  CHANNELS 3 Yrotation Xrotation Zrotation
  JOINT Chest2
  {
   OFFSET 0.000000 9.601200 -0.005300
   CHANNELS 3 Yrotation Xrotation Zrotation
   JOINT Chest3
   {
    OFFSET 0.000000 9.561800 0.000000
    CHANNELS 3 Yrotation Xrotation Zrotation
    JOINT Chest4
    {
     OFFSET 0.000000 9.552100 0.000000
     CHANNELS 3 Yrotation Xrotation Zrotation
     JOINT Neck
     {
      OFFSET 0.000000 14.453000 0.000000
      CHANNELS 3 Yrotation Xrotation Zrotation
      JOINT Head
      {
       OFFSET 0.000000 8.936500 -0.011300
       CHANNELS 3 Yrotation Xrotation Zrotation
       End Site
       {
        OFFSET 0.000000 17.073600 -0.006000
       }
      }
     }
     JOINT RightCollar
     {
      OFFSET -2.921100 9.558500 0.000000
      CHANNELS 3 Yrotation Xrotation Zrotation
      JOINT RightShoulder
      {
       OFFSET -13.519700 0.000000 0.000000
       CHANNELS 3 Yrotation Xrotation Zrotation
       JOINT RightElbow
       {
        OFFSET 0.000000 -29.696600 0.000000
        CHANNELS 3 Yrotation Xrotation Zrotation
        JOINT RightWrist
        {
         OFFSET 0.000000 -24.004700 0.000000
         CHANNELS 3 Yrotation Xrotation Zrotation
         End Site
         {
          OFFSET 0.000000 -17.728500 0.000000
         }
        }
       }
      }
     }
     JOINT LeftCollar
     {
      OFFSET 2.921100 9.558500 0.000000
      CHANNELS 3 Yrotation Xrotation Zrotation
      JOINT LeftShoulder
      {
       OFFSET 13.519700 0.000000 0.000000
       CHANNELS 3 Yrotation Xrotation Zrotation
       JOINT LeftElbow
       {
        OFFSET 0.000000 -29.696600 0.000000
        CHANNELS 3 Yrotation Xrotation Zrotation
        JOINT LeftWrist
        {
         OFFSET 0.000000 -24.004700 0.000000
         CHANNELS 3 Yrotation Xrotation Zrotation
         End Site
         {
          OFFSET 0.000000 -17.728500 0.000000
         }
        }
       }
      }
     }
    }
   }
  }
 }
 JOINT RightHip
 {
  OFFSET -7.771700 -0.012900 -0.001300
  CHANNELS 3 Yrotation Xrotation Zrotation
  JOINT RightKnee
  {
   OFFSET 0.000000 -40.869800 0.001200
   CHANNELS 3 Yrotation Xrotation Zrotation
   JOINT RightAnkle
   {
    OFFSET 0.000000 -39.717900 0.002100
    CHANNELS 3 Yrotation Xrotation Zrotation
    JOINT RightToe
    {
     OFFSET 0.000000 -4.965400 11.033500
     CHANNELS 3 Yrotation Xrotation Zrotation
     End Site
     {
      OFFSET 0.000000 -1.423100 5.872300
     }
    }
   }
  }
 }
 JOINT LeftHip
 {
  OFFSET 7.771700 -0.012900 -0.001300
  CHANNELS 3 Yrotation Xrotation Zrotation
  JOINT LeftKnee
  {
   OFFSET 0.000000 -40.869800 0.001200
   CHANNELS 3 Yrotation Xrotation Zrotation
   JOINT LeftAnkle
   {
    OFFSET 0.000000 -39.717900 0.002100
    CHANNELS 3 Yrotation Xrotation Zrotation
    JOINT LeftToe
    {
     OFFSET 0.000000 -4.965400 11.033500
     CHANNELS 3 Yrotation Xrotation Zrotation
     End Site
     {
      OFFSET 0.000000 -1.423100 5.872300
     }
    }
   }
  }
 }
}
MOTION
Frames: 8
Frame Time: 0.008333
-71.565632 46.976235 -4.461306 175.488020 -27.688130 -4.159859 0.878212 13.459294 2.754249 0.003665 1.118754 0.187533 -0.135198 1.910343 0.346837 -0.307154 12.191489 2.119365 0.330353 18.614942 -0.327546 0.695076 -1.254873 -0.796812 -1.942653 1.587901 -1.274649 1.965443 -3.660008 -15.431894 -40.322063 -60.025902 86.210542 -1.284207 -0.800437 -8.642323 -0.095009 0.124304 0.749471 14.399241 -10.824020 15.354215 64.248766 -46.227650 -88.533204 13.280082 -3.389175 26.177121 -6.877678 -58.227666 2.407506 -157.812062 79.361783 -147.715690 -7.283748 -20.463441 -6.384720 -0.220975 -0.907795 -0.110433 2.231598 -61.356454 12.520672 -102.347895 82.087811 -108.064872 1.903025 -5.363335 8.887812 0.472227 0.346921 0.188623
-71.591896 46.969755 -4.458594 175.325925 -27.662112 -4.085838 0.912080 13.441812 2.751416 0.054484 1.109297 0.176693 -0.189141 1.917228 0.356197 -0.351310 12.189386 2.114769 0.393218 18.586337 -0.447815 0.834807 -1.290587 -0.977489 -1.886076 1.640703 -1.275652 2.030000 -3.752106 -15.484285 -40.109153 -60.002335 85.971686 -1.284400 -0.822314 -8.884475 0.026245 0.138424 0.752255 13.969738 -10.380837 15.083745 63.958328 -46.441095 -88.563816 13.244049 -3.265931 26.064499 -7.179152 -58.220191 2.365473 -155.961234 79.154701 -145.886408 -7.296262 -20.433119 -6.414353 -0.284218 -0.938484 -0.127843 2.379910 -61.391086 12.491127 -102.554416 82.067736 -108.239180 1.857569 -5.383471 8.872164 0.544484 0.344132 0.196328
-71.617365 46.963736 -4.455631 175.169201 -27.631564 -4.019917 0.947268 13.425458 2.754645 -0.025972 1.116292 0.190940 -0.063198 1.898228 0.327788 -0.417197 12.191629 2.111199 0.442379 18.558518 -0.546324 0.986657 -1.324264 -1.144124 -1.862971 1.691977 -1.258877 2.085126 -3.849993 -15.541605 -39.896069 -59.988625 85.758162 -1.283945 -0.806556 -9.180497 0.054975 0.218081 0.882758 13.615217 -9.966700 14.684249 63.666386 -46.670632 -88.589256 13.202529 -3.128768 25.960725 -7.497460 -58.214004 2.338044 -154.350322 78.964887 -144.294340 -7.329876 -20.391159 -6.445169 -0.333698 -0.972813 -0.149661 2.507162 -61.429842 12.474318 -102.776103 82.053385 -108.425724 1.815527 -5.408529 8.834554 0.609420 0.344804 0.220781
-71.643062 46.957995 -4.451756 175.035731 -27.592588 -3.959648 0.970792 13.404635 2.754413 -0.054152 1.119662 0.194235 -0.066548 1.894943 0.324604 -0.411296 12.180469 2.088403 0.508484 18.537507 -0.623199 1.132825 -1.361219 -1.306531 -1.846186 1.740998 -1.237655 2.123942 -3.949009 -15.599165 -39.648927 -59.972882 85.527062 -1.285059 -0.771778 -9.515538 0.099986 0.280140 0.950695 13.211534 -9.548969 14.355303 63.367553 -46.912945 -88.607278 13.151853 -2.972344 25.873117 -7.826650 -58.214445 2.304753 -152.969223 78.796839 -142.929375 -7.387960 -20.331262 -6.477716 -0.358517 -1.014156 -0.170110 2.608903 -61.474186 12.438327 -103.020769 82.060095 -108.632313 1.793764 -5.438047 8.802406 0.649661 0.348957 0.228541
-71.671726 46.950735 -4.443679 174.932073 -27.522535 -3.888845 0.971769 13.355656 2.731762 -0.055712 1.118063 0.192554 -0.092254 1.896406 0.325917 -0.408768 12.170253 2.064431 0.583652 18.522121 -0.670186 1.272311 -1.399210 -1.473873 -1.832499 1.786300 -1.216517 2.138359 -4.042908 -15.650652 -39.363581 -59.939687 85.273942 -1.290152 -0.725361 -9.891975 0.149123 0.331347 0.987570 12.776477 -9.129459 14.067833 63.060728 -47.167339 -88.619482 13.089198 -2.788059 25.811141 -8.145000 -58.247792 2.237248 -151.795967 78.655423 -141.765818 -7.496482 -20.264387 -6.511467 -0.360946 -1.050211 -0.184223 2.715778 -61.544568 12.358146 -103.179499 82.089015 -108.778430 1.798557 -5.449038 8.798486 0.647887 0.344560 0.223278
-71.695547 46.943384 -4.432031 174.755100 -27.439547 -3.802586 1.051366 13.289114 2.730576 -0.057026 1.116882 0.190609 -0.061166 1.884126 0.314007 -0.418082 12.167491 2.054484 0.615296 18.511224 -0.702385 1.413870 -1.429190 -1.626420 -1.826200 1.807425 -1.206757 2.117091 -4.094823 -15.674411 -39.070552 -59.873520 85.003341 -1.303496 -0.663758 -10.320037 0.153698 0.391708 1.024117 12.333203 -8.721945 13.796174 62.736657 -47.438692 -88.619422 13.010019 -2.570085 25.778740 -8.426003 -58.294615 2.214618 -150.787721 78.542099 -140.758482 -7.596926 -20.176620 -6.550401 -0.396298 -1.088179 -0.210411 2.856540 -61.634652 12.308696 -103.354642 82.122176 -108.936888 1.805972 -5.453074 8.792799 0.652334 0.332971 0.207955
-71.716906 46.940077 -4.425502 174.630568 -27.392983 -3.737345 1.108541 13.255351 2.726654 -0.070752 1.122386 0.194875 -0.036214 1.871014 0.300944 -0.476712 12.182287 2.041695 0.689728 18.487814 -0.801425 1.554445 -1.454837 -1.703555 -1.817453 1.851717 -1.189504 2.177977 -4.168530 -15.713291 -38.804559 -59.758394 84.721167 -1.329164 -0.580191 -10.810212 0.212146 0.445615 1.041406 11.886102 -8.334647 13.535658 62.377684 -47.738309 -88.594377 12.912218 -2.312231 25.767522 -8.731579 -58.301407 2.179315 -149.915436 78.451135 -139.880770 -7.746744 -20.065796 -6.612263 -0.383019 -1.139598 -0.207827 2.949227 -61.683632 12.253915 -103.591671 82.140748 -109.136098 1.828514 -5.477961 8.760951 0.661752 0.329284 0.194867
-71.741514 46.937312 -4.418905 174.521847 -27.345241 -3.643348 1.175822 13.209001 2.682266 -0.109085 1.141189 0.211124 -0.084225 1.887333 0.310623 -0.459525 12.172990 2.004175 0.765118 18.467817 -0.851172 1.678045 -1.481527 -1.808333 -1.800375 1.875198 -1.181826 2.151577 -4.228892 -15.726615 -38.483344 -59.594740 84.450854 -1.371247 -0.472891 -11.368954 0.266162 0.501766 1.051826 11.434293 -7.970338 13.279931 61.967604 -48.075027 -88.532056 12.790634 -2.006217 25.765996 -8.985426 -58.314346 2.074835 -149.160116 78.374844 -139.114358 -7.906968 -19.950662 -6.694306 -0.355849 -1.184454 -0.190349 3.050225 -61.724051 12.128778 -103.873001 82.204098 -109.394257 1.906127 -5.501496 8.743993 0.585237 0.318651 0.177651
